{"title":"Hatari 1962 DVDrip English Klam","uid":6399443,"size":1371589544,"categoryP":"video","categoryS":"movies","magnet":"?xt=urn:btih:1ebca541224567a66f91c52d2cdc2e2ba470235a&amp;dn=Hatari+1962+DVDrip+English+Klam&amp;tr=udp%3A%2F%2Ftracker.openbittorrent.com%3A80&amp;tr=udp%3A%2F%2Fopen.demonii.com%3A1337&amp;tr=udp%3A%2F%2Ftracker.coppersurfer.tk%3A6969&amp;tr=udp%3A%2F%2Fexodus.desync.com%3A6969","seeders":0,"leechers":0,"uploader":"Klambake","files":4,"time":1305623285,"description":"With: John Wayne, Red Buttons and Elsa Martinelli\n\nEen groep mannen vangt wilde dieren in Afrika en verkoopt deze door aan dierentuinen. Zal de aankomst van een vrouwelijke natuur fotograaf hun manieren en gedrag veranderen?\n\nJohn Wayne and his ensemble cast cavort over the African landscape filling orders from zoos for wild animals. Bruce Cabot plays &quot;the Indian&quot;, a womanizing sharpshooter who is gored by a rhino in the opening scenes of the film. This becomes a running theme through the movie; their bad luck in catching rhinos, and provides the climactic ending chase. While Bruce is in the hospital, Elsa Martinelli shows up as a woman photographer from a Swiss zoo, and John wants to send her packing. She strongarms the Duke into letting her stay by promising that her zoo will buy most of their animals this season if she's allowed to go along on the hunts and take photos. Hardy Kruger, Gerard Blain, Michelle Girardon and Valentin de Vargas round out the group. They traipse over the African landscape capturing animals; Elsa also has a running gag where she collects baby elephants as the movie goes along. In the end she's acquired three of them.\n\nGeneral:\n\nComplete name                    : Hatari\\Hatari.avi\nFormat                           : AVI\nFormat/Info                      : Audio Video Interleave\nFile size                        : 1.28 GiB\nDuration                         : 2h 31mn\nOverall bit rate                 : 1 211 Kbps\n\nVideo:\n\nFormat                           : MPEG-4 Visual\nFormat profile                   : Simple@L3\nFormat settings, BVOP            : No\nFormat settings, QPel            : No\nFormat settings, GMC             : No warppoints\nFormat settings, Matrix          : Default (H.263)\nCodec ID                         : XVID\nCodec ID/Hint                    : XviD\nDuration                         : 2h 31mn\nBit rate                         : 1 008 Kbps\nWidth                            : 652 pixels\nHeight                           : 352 pixels\nDisplay aspect ratio             : 1.852\nFrame rate                       : 25.000 fps\nColor space                      : YUV\nChroma subsampling               : 4:2:0\nBit depth                        : 8 bits\nScan type                        : Progressive\nBits/(Pixel*Frame)               : 0.176\nStream size                      : 1.06 GiB (83%)\nWriting library                  : XviD 1.1.2 (UTC 2006-11-01)\n\nAudio:\n\nFormat                           : AC-3\nFormat/Info                      : Audio Coding 3\nMode extension                   : CM (complete main)\nCodec ID                         : 2000\nDuration                         : 2h 31mn\nBit rate mode                    : Constant\nBit rate                         : 192 Kbps\nChannel(s)                       : 2 channels\nChannel positions                : Front: L R\nSampling rate                    : 48.0 KHz\nBit depth                        : 16 bits\nStream size                      : 207 MiB (16%)\nAlignment                        : Aligned on interleaves\nInterleave, duration             : 32 ms (0.80 video frame)\nInterleave, preload duration     : 416 ms\n\n","torrent":{"xt":"urn:btih:1ebca541224567a66f91c52d2cdc2e2ba470235a","amp;dn":"Hatari+1962+DVDrip+English+Klam","amp;tr":["udp%3A%2F%2Ftracker.openbittorrent.com%3A80","udp%3A%2F%2Fopen.demonii.com%3A1337","udp%3A%2F%2Ftracker.coppersurfer.tk%3A6969","udp%3A%2F%2Fexodus.desync.com%3A6969"],"infoHash":"1ebca541224567a66f91c52d2cdc2e2ba470235a","infoHashBuffer":{"type":"Buffer","data":[30,188,165,65,34,69,103,166,111,145,197,45,44,220,46,43,164,112,35,90]},"announce":[],"urlList":[]}}